<svg version="1.2" xmlns="http://www.w3.org/2000/svg" viewBox="0 0 1440 1440" width="1440" height="1440">
	<style>
		.s0 { fill: #ffffff } 
		.s1 { fill: #000000 } 
	</style>
	<g id="icontile-new 1440px">
		<path id="Path 0" fill-rule="evenodd" class="s0" d="m712.5 23.14c9.35-0.07 24.2 0.31 33 0.86 8.8 0.55 22.3 1.7 30 2.57 7.7 0.86 20.52 2.67 28.5 4.02 7.98 1.35 21.7 4.21 30.5 6.36 8.8 2.15 21.29 5.51 27.75 7.48 6.46 1.96 17.94 5.84 25.5 8.62 7.56 2.77 22.3 9.25 32.75 14.4 10.45 5.15 25.3 13.13 33 17.74 7.7 4.6 17.15 10.58 21 13.29 3.85 2.7 13.73 10.11 21.97 16.47 8.23 6.35 19.48 15.65 25 20.67 5.51 5.01 15.67 14.91 22.57 22 6.89 7.08 17.5 18.95 23.58 26.38 6.07 7.43 13.52 16.88 16.54 21 3.03 4.13 9.11 12.9 13.5 19.5 4.4 6.6 12.21 18.97 17.36 27.5 5.15 8.52 13.96 24.95 19.59 36.5 5.62 11.55 12.9 27.3 16.18 35 3.28 7.7 8.7 21.65 12.04 31 3.33 9.35 8.53 24.88 11.54 34.5 3.02 9.63 7.53 25.15 10.02 34.5 2.5 9.35 6.61 26.9 9.14 39 2.53 12.1 5.91 29.65 7.52 39 1.61 9.35 4.06 24.88 5.45 34.5 1.4 9.63 3.63 27.4 4.97 39.5 1.34 12.1 3.13 31.45 3.98 43 0.84 11.55 1.99 31.58 2.54 44.5 0.56 12.92 1.01 38.69 1.01 57.25 0 18.56-0.46 43.99-1.02 56.5-0.56 12.51-1.7 32.2-2.52 43.75-0.82 11.55-2.4 29.55-3.5 40-1.11 10.45-3.39 28.67-5.07 40.5-1.69 11.83-4.35 28.92-5.92 38-1.56 9.08-4.92 26.4-7.44 38.5-2.53 12.1-6.64 29.65-9.14 39-2.49 9.35-7 24.88-10.02 34.5-3.01 9.63-8.21 25.15-11.54 34.5-3.34 9.35-8.76 23.3-12.04 31-3.28 7.7-10.56 23.45-16.18 35-5.63 11.55-14.44 27.97-19.59 36.5-5.15 8.53-12.96 20.9-17.36 27.5-4.39 6.6-10.47 15.38-13.5 19.5-3.02 4.13-10.47 13.58-16.54 21-6.08 7.42-16.69 19.3-23.58 26.38-6.9 7.09-17.06 16.99-22.57 22-5.52 5.02-16.77 14.32-25 20.67-8.24 6.36-18.12 13.77-21.97 16.47-3.85 2.71-13.3 8.69-21 13.29-7.7 4.61-22.55 12.59-33 17.74-10.45 5.15-25.19 11.63-32.75 14.4-7.56 2.78-19.04 6.66-25.5 8.62-6.46 1.97-18.95 5.33-27.75 7.48-8.8 2.15-22.52 5.01-30.5 6.36-7.98 1.35-20.8 3.16-28.5 4.02-7.7 0.87-21.2 2.02-30 2.57-8.8 0.55-22.52 1-30.5 1-7.98 0-20.35-0.44-27.5-0.99-7.15-0.55-17.05-1.48-22-2.05-4.95-0.58-13.5-1.71-19-2.53-5.5-0.81-14.73-2.4-20.5-3.54-5.77-1.13-15.9-3.39-22.5-5.03-6.6-1.63-16.5-4.34-22-6.02-5.5-1.68-16.98-5.52-25.5-8.54-8.52-3.02-20.45-7.77-26.5-10.57-6.05-2.79-15.95-7.76-22-11.03-6.05-3.27-16.85-9.45-24-13.72-7.15-4.28-18.18-11.55-24.5-16.16-6.32-4.61-17.13-12.83-24-18.26-6.87-5.44-21.1-18.47-31.6-28.97-10.51-10.5-24.6-25.84-31.31-34.09-6.72-8.25-16.8-21.65-22.4-29.77-5.61-8.13-14.66-22.08-20.11-31-5.46-8.93-14.63-25.68-20.38-37.23-5.74-11.55-13.14-27.08-16.43-34.5-3.3-7.42-8.81-21.15-12.26-30.5-3.45-9.35-8.54-23.97-11.29-32.5-2.76-8.53-6.84-21.8-9.06-29.5-2.21-7.7-5.16-18.5-6.54-24-1.37-5.5-4.58-19.9-7.13-32-2.54-12.1-6.12-30.77-7.96-41.5-1.84-10.73-4.5-27.83-5.92-38-1.42-10.17-3.47-27.27-4.56-38-1.1-10.73-2.67-28.5-3.5-39.5-0.83-11-1.97-31.92-2.53-46.5-0.56-14.58-1.01-37.75-1.01-51.5 0.01-13.75 0.46-36.25 1.01-50 0.54-13.75 1.67-34.45 2.5-46 0.83-11.55 2.44-30 3.57-41 1.13-11 3.16-27.87 4.51-37.5 1.35-9.62 3.77-25.37 5.38-35 1.61-9.62 4.78-26.5 7.04-37.5 2.26-11 5.62-26.3 7.45-34 1.84-7.7 5.23-20.52 7.54-28.5 2.3-7.98 6.45-21.48 9.21-30 2.75-8.52 7.84-23.15 11.29-32.5 3.45-9.35 8.96-23.07 12.26-30.5 3.29-7.43 10.69-22.95 16.43-34.5 5.75-11.55 14.92-28.3 20.38-37.23 5.45-8.92 14.5-22.87 20.11-31 5.6-8.12 15.68-21.52 22.4-29.77 6.71-8.25 20.8-23.59 31.31-34.09 10.5-10.5 24.73-23.53 31.6-28.97 6.88-5.43 17.68-13.65 24-18.26 6.32-4.61 17.35-11.88 24.5-16.16 7.15-4.27 17.95-10.45 24-13.72 6.05-3.27 15.95-8.24 22-11.03 6.05-2.8 17.98-7.55 26.5-10.57 8.52-3.02 20-6.86 25.5-8.54 5.5-1.68 15.4-4.39 22-6.02 6.6-1.64 16.73-3.9 22.5-5.03 5.77-1.13 14.77-2.7 20-3.49 5.23-0.79 14-1.96 19.5-2.59 5.5-0.63 14.5-1.51 20-1.95 5.5-0.44 17.65-0.86 27-0.94zm-32.5 192.44c-5.23 0.88-14.45 2.85-20.5 4.38-6.05 1.53-15.73 4.62-21.5 6.88-5.77 2.25-15 6.39-20.5 9.2-5.5 2.81-15.63 8.84-22.5 13.41-6.88 4.57-16.33 11.67-21 15.77-4.67 4.1-12.55 11.71-17.5 16.9-4.95 5.2-13.08 14.83-18.08 21.41-4.99 6.59-12.31 17.15-16.26 23.47-3.95 6.32-11.62 20.27-17.05 31-5.43 10.73-12.58 26.25-15.9 34.5-3.32 8.25-8.76 23.32-12.09 33.5-3.33 10.18-7.84 25.02-10.03 33-2.18 7.98-5.14 19.45-6.57 25.5-1.43 6.05-4.12 19.1-5.98 29-1.86 9.9-4.11 23.4-5 30-0.89 6.6-2.04 14.92-2.55 18.5-0.51 3.58-1.64 13.48-2.51 22-0.86 8.52-1.99 18.42-2.49 22-0.51 3.58-1.49 13.25-2.18 21.5-0.87 10.39-1.26 39.91-1.28 96-0.02 52.31 0.32 81.57 0.97 82.6 0.84 1.35 23.67-15.26 142-103.33 77.55-57.72 154.19-114.69 170.3-126.61l29.31-21.66c-29.14-39.07-32.33-44-33.5-48.5-1.17-4.51-1.21-6.31-0.19-10 0.68-2.48 1.95-5.62 2.81-7 0.87-1.37 2.86-3.36 4.42-4.42 1.57-1.06 4.87-2.46 7.35-3.12 4.1-1.1 13.2 0.06 102.5 13.12 53.9 7.88 100.7 14.83 104 15.45 3.3 0.62 7.8 2.17 10 3.44 2.2 1.27 5 4.05 6.22 6.17 1.22 2.12 2.22 4.76 2.22 5.86 0 1.1 0.27 1.77 0.58 1.5 0.32-0.27-0.35-5.67-1.49-12-1.14-6.32-3.69-18.7-5.66-27.5-1.98-8.8-5.77-23.65-8.44-33-2.67-9.35-7.06-23.75-9.76-32-2.71-8.25-7.3-20.85-10.2-28-2.9-7.15-7.83-18.4-10.94-25-3.12-6.6-8.52-17.18-12.01-23.5-3.49-6.32-9.11-15.77-12.49-21-3.37-5.23-10.14-14.68-15.04-21-4.89-6.32-14.32-17.06-20.94-23.85-6.63-6.8-15.43-15.17-19.55-18.59-4.13-3.43-11.55-8.93-16.5-12.23-4.95-3.29-12.83-8.12-17.5-10.73-4.67-2.6-11.88-6.25-16-8.1-4.13-1.84-10.42-4.45-14-5.79-3.58-1.33-12.13-3.81-19-5.5-6.88-1.69-15.88-3.58-20-4.19-4.13-0.62-11.33-1.49-16-1.95-4.67-0.46-14.58-0.81-22-0.79-7.42 0.02-17.33 0.42-22 0.88-4.67 0.46-12.77 1.55-18 2.42zm293.42 416.92c-8.01 54.45-15.09 101.22-15.74 103.94-0.84 3.5-2.36 6.11-5.23 9-2.98 2.99-5.35 4.34-9 5.13-3.54 0.76-6.37 0.75-9.95-0.04-2.75-0.61-6.18-1.99-7.62-3.07-1.44-1.08-9.77-11.55-18.5-23.28-9.92-13.31-16.35-21.1-17.13-20.75-0.69 0.32-93.61 69.25-206.5 153.2-112.89 83.95-205.77 153.13-206.41 153.75-0.87 0.84-0.11 4.2 3.09 13.62 2.34 6.88 6.63 18.35 9.55 25.5 2.92 7.15 8.89 20.2 13.27 29 4.38 8.8 11.4 21.85 15.59 29 4.19 7.15 12.33 19.3 18.1 27 5.76 7.7 15.22 18.88 21.02 24.85 5.8 5.97 14.14 13.9 18.54 17.63 4.4 3.73 13.4 10.3 20 14.59 6.6 4.3 16.95 10.34 23 13.43 6.05 3.1 15.05 7.11 20 8.92 4.95 1.81 13.95 4.55 20 6.09 6.05 1.54 15.16 3.52 20.25 4.4 5.09 0.87 16.11 2.12 24.5 2.76 11.68 0.9 19.11 0.89 31.75-0.01 9.08-0.65 20.33-1.86 25-2.69 4.67-0.83 12.33-2.42 17-3.52 4.67-1.11 11.87-3.19 16-4.62 4.12-1.43 11.55-4.44 16.5-6.7 4.95-2.25 12.6-6.09 17-8.54 4.4-2.44 12.05-7.12 17-10.41 4.95-3.29 11.47-8.02 14.5-10.53 3.02-2.5 10.83-9.74 17.35-16.1 6.52-6.35 15.27-15.83 19.44-21.05 4.17-5.22 9.01-11.3 10.76-13.5 1.75-2.2 6.09-8.5 9.65-14 3.56-5.5 9.33-15.17 12.82-21.5 3.49-6.33 8.89-16.9 12.01-23.5 3.11-6.6 8.04-17.85 10.94-25 2.9-7.15 7.49-19.75 10.18-28 2.7-8.25 6.73-21.3 8.97-29 2.23-7.7 5.57-20.3 7.42-28 1.84-7.7 4.5-19.85 5.89-27 1.4-7.15 3.44-18.62 4.54-25.5 1.1-6.87 2.91-19.48 4.02-28 1.11-8.52 2.9-24.95 3.97-36.5 1.08-11.55 2.53-29.1 3.24-39 0.86-11.95 1.29-40.34 1.29-84.5 0.01-44.45-0.42-72.47-1.28-84.5-0.71-9.9-1.95-25.42-2.76-34.5-0.81-9.08-2.6-25.5-3.98-36.5-1.38-11-3.12-23.6-3.87-28-0.75-4.4-1.42-6.87-1.49-5.5-0.07 1.38-6.68 47.05-14.69 101.5z"/>
		<path id="Path 1" fill-rule="evenodd" class="s1" d="m712.5 63.19c6.6-0.09 19.65 0.29 29 0.84 9.35 0.56 23.08 1.71 30.5 2.55 7.42 0.85 19.8 2.63 27.5 3.96 7.7 1.33 19.63 3.8 26.5 5.49 6.88 1.69 19.48 5.36 28 8.14 8.52 2.79 20 6.86 25.5 9.04 5.5 2.18 16.52 7.24 24.5 11.24 7.98 4 20.58 10.83 28 15.18 7.42 4.35 18.23 11.27 24 15.37 5.77 4.1 16.13 11.93 23 17.41 6.88 5.47 20.19 17.63 29.59 27.02 9.4 9.39 20.81 21.57 25.35 27.07 4.54 5.5 11.3 14.05 15.04 19 3.73 4.95 10.07 13.95 14.08 20 4.01 6.05 10.85 16.85 15.19 24 4.34 7.15 11.87 20.88 16.72 30.5 4.85 9.63 11.15 22.68 14.01 29 2.86 6.32 7.01 16 9.22 21.5 2.21 5.5 6.69 17.65 9.96 27 3.28 9.35 8.14 24.2 10.81 33 2.67 8.8 6.03 20.5 7.47 26 1.43 5.5 3.92 15.63 5.51 22.5 1.6 6.88 4.72 22.4 6.93 34.5 2.2 12.1 5.14 29.42 6.53 38.5 1.38 9.08 3.19 21.9 4.01 28.5 0.83 6.6 1.98 16.5 2.55 22 0.58 5.5 1.94 20.58 3.02 33.5 1.07 12.92 2.5 41.27 3.17 63 0.94 30.83 0.95 48.28 0.01 79.5-0.66 22-1.87 48.77-2.69 59.5-0.82 10.73-1.95 24.23-2.51 30-0.57 5.77-1.92 17.92-3.02 27-1.1 9.08-3.14 23.92-4.53 33-1.39 9.08-4.34 26.4-6.54 38.5-2.21 12.1-5.33 27.63-6.93 34.5-1.59 6.88-4.08 17-5.51 22.5-1.44 5.5-4.8 17.2-7.47 26-2.67 8.8-7.53 23.65-10.81 33-3.27 9.35-7.75 21.5-9.96 27-2.21 5.5-6.36 15.17-9.22 21.5-2.86 6.33-9.16 19.38-14.01 29-4.85 9.63-12.38 23.35-16.72 30.5-4.34 7.15-11.18 17.95-15.19 24-4.01 6.05-10.35 15.05-14.08 20-3.74 4.95-10.5 13.5-15.04 19-4.54 5.5-15.95 17.68-25.35 27.07-9.4 9.39-22.71 21.55-29.59 27.02-6.88 5.48-17.23 13.31-23 17.41-5.77 4.1-16.58 11.02-24 15.37-7.42 4.35-20.02 11.18-28 15.18-7.98 4-19 9.06-24.5 11.24-5.5 2.18-17.2 6.31-26 9.18-8.8 2.88-22.3 6.73-30 8.56-7.7 1.83-19.63 4.26-26.5 5.4-6.88 1.13-18.35 2.74-25.5 3.57-7.15 0.83-22.9 2.04-35 2.68-17.13 0.92-26.21 0.91-41-0.05-10.45-0.67-25.98-2.12-34.5-3.2-8.52-1.09-21.13-3.12-28-4.51-6.88-1.39-17-3.66-22.5-5.05-5.5-1.4-17.88-5.16-27.5-8.36-9.63-3.21-23.35-8.38-30.5-11.49-7.15-3.11-19.08-8.94-26.5-12.96-7.42-4.02-17.32-9.56-22-12.32-4.68-2.76-13.75-8.78-20.17-13.38-6.42-4.6-16.54-12.18-22.5-16.85-5.96-4.67-19.19-16.82-29.4-27-10.92-10.89-23.58-24.79-30.75-33.76-6.7-8.39-17.3-23.01-23.56-32.5-6.26-9.49-14.9-23.33-19.21-30.75-4.3-7.42-12.85-24.08-18.99-37-6.14-12.92-13.43-29.12-16.21-36-2.77-6.87-8.48-22.62-12.68-35-4.21-12.37-9.6-29.25-12-37.5-2.39-8.25-5.95-21.52-7.9-29.5-1.95-7.98-4.93-21.48-6.62-30-1.7-8.52-4.41-23.37-6.03-33-1.62-9.62-3.83-23.58-4.91-31-1.08-7.42-2.88-21.6-3.99-31.5-1.11-9.9-2.92-29.25-4.03-43-1.12-13.75-2.5-41.65-3.09-62-0.75-26.05-0.75-48.1-0.01-74.5 0.58-20.62 1.72-46.73 2.54-58 0.81-11.27 1.71-22.75 2-25.5 0.29-2.75 1.44-13.33 2.57-23.5 1.13-10.17 2.94-24.58 4.02-32 1.07-7.42 3.28-21.37 4.9-31 1.62-9.62 4.33-24.48 6.03-33 1.69-8.52 4.67-22.02 6.62-30 1.95-7.98 5.51-21.25 7.9-29.5 2.4-8.25 7.79-25.12 12-37.5 4.2-12.37 9.91-28.12 12.68-35 2.78-6.87 10.07-23.07 16.21-36 6.14-12.93 14.69-29.57 18.99-37 4.31-7.43 12.95-21.26 19.21-30.75 6.26-9.49 16.86-24.11 23.56-32.5 7.17-8.97 19.83-22.87 30.75-33.76 10.21-10.18 23.44-22.33 29.4-27 5.96-4.67 16.08-12.25 22.5-16.85 6.42-4.6 15.49-10.62 20.17-13.38 4.68-2.76 14.58-8.3 22-12.32 7.42-4.02 19.35-9.85 26.5-12.96 7.15-3.11 21.1-8.36 31-11.65 9.9-3.3 24.52-7.57 32.5-9.49 7.98-1.92 20.8-4.55 28.5-5.85 7.7-1.29 21.2-3.06 30-3.92 8.8-0.86 18.25-1.71 21-1.89 2.75-0.17 10.4-0.4 17-0.49zm-32.5 152.39c-5.23 0.88-14.45 2.85-20.5 4.38-6.05 1.53-15.73 4.62-21.5 6.88-5.77 2.25-15 6.39-20.5 9.2-5.5 2.81-15.63 8.84-22.5 13.41-6.87 4.57-16.33 11.67-21 15.77-4.67 4.1-12.55 11.71-17.5 16.9-4.95 5.2-13.08 14.83-18.08 21.41-4.99 6.59-12.31 17.15-16.26 23.47-3.95 6.33-11.62 20.28-17.05 31-5.43 10.73-12.58 26.25-15.9 34.5-3.32 8.25-8.76 23.33-12.09 33.5-3.33 10.18-7.84 25.03-10.03 33-2.18 7.98-5.14 19.45-6.57 25.5-1.43 6.05-4.12 19.1-5.98 29-1.86 9.9-4.11 23.4-5 30-0.89 6.6-2.04 14.92-2.55 18.5-0.51 3.58-1.64 13.48-2.51 22-0.86 8.53-1.99 18.42-2.49 22-0.51 3.58-1.49 13.25-2.18 21.5-0.87 10.39-1.26 39.91-1.28 96-0.02 52.31 0.32 81.57 0.97 82.6 0.84 1.35 23.67-15.26 142-103.33 77.55-57.72 154.19-114.69 170.3-126.61l29.31-21.66c-29.14-39.07-32.33-44-33.5-48.5-1.17-4.51-1.21-6.31-0.19-10 0.68-2.47 1.95-5.62 2.81-7 0.87-1.37 2.86-3.36 4.42-4.42 1.57-1.06 4.87-2.46 7.35-3.12 4.1-1.1 13.2 0.06 102.5 13.12 53.9 7.88 100.7 14.83 104 15.45 3.3 0.62 7.8 2.17 10 3.44 2.2 1.27 5 4.05 6.22 6.17 1.22 2.12 2.22 4.76 2.22 5.86 0 1.1 0.27 1.78 0.58 1.5 0.32-0.27-0.35-5.67-1.49-12-1.14-6.32-3.69-18.7-5.66-27.5-1.98-8.8-5.77-23.65-8.44-33-2.67-9.35-7.06-23.75-9.76-32-2.71-8.25-7.3-20.85-10.2-28-2.9-7.15-7.83-18.4-10.94-25-3.12-6.6-8.52-17.17-12.01-23.5-3.49-6.32-9.11-15.77-12.49-21-3.37-5.22-10.14-14.67-15.04-21-4.89-6.32-14.32-17.06-20.94-23.85-6.63-6.8-15.43-15.17-19.55-18.59-4.13-3.43-11.55-8.93-16.5-12.23-4.95-3.29-12.83-8.12-17.5-10.73-4.67-2.6-11.88-6.25-16-8.1-4.13-1.84-10.42-4.45-14-5.79-3.58-1.33-12.13-3.81-19-5.5-6.88-1.69-15.88-3.58-20-4.19-4.13-0.62-11.33-1.49-16-1.95-4.67-0.46-14.58-0.81-22-0.79-7.42 0.02-17.33 0.42-22 0.88-4.67 0.46-12.77 1.55-18 2.42zm293.42 416.92c-8.01 54.45-15.09 101.22-15.74 103.94-0.84 3.5-2.36 6.11-5.23 9-2.98 2.99-5.35 4.34-9 5.13-3.54 0.76-6.37 0.75-9.95-0.04-2.75-0.61-6.18-1.99-7.62-3.07-1.44-1.08-9.77-11.55-18.5-23.28-9.92-13.31-16.35-21.1-17.13-20.75-0.69 0.32-93.61 69.25-206.5 153.2-112.89 83.95-205.77 153.13-206.41 153.75-0.87 0.84-0.11 4.2 3.09 13.62 2.34 6.88 6.63 18.35 9.55 25.5 2.92 7.15 8.89 20.2 13.27 29 4.38 8.8 11.4 21.85 15.59 29 4.19 7.15 12.33 19.3 18.1 27 5.76 7.7 15.22 18.88 21.02 24.85 5.8 5.97 14.14 13.9 18.54 17.63 4.4 3.73 13.4 10.3 20 14.59 6.6 4.3 16.95 10.34 23 13.43 6.05 3.1 15.05 7.11 20 8.92 4.95 1.81 13.95 4.55 20 6.09 6.05 1.54 15.16 3.52 20.25 4.4 5.09 0.87 16.11 2.12 24.5 2.76 11.68 0.9 19.11 0.89 31.75-0.01 9.08-0.65 20.33-1.86 25-2.69 4.67-0.83 12.33-2.42 17-3.52 4.67-1.11 11.87-3.19 16-4.62 4.12-1.43 11.55-4.44 16.5-6.7 4.95-2.25 12.6-6.09 17-8.54 4.4-2.44 12.05-7.12 17-10.41 4.95-3.29 11.47-8.02 14.5-10.53 3.02-2.5 10.83-9.74 17.35-16.1 6.52-6.35 15.27-15.83 19.44-21.05 4.17-5.22 9.01-11.3 10.76-13.5 1.75-2.2 6.09-8.5 9.65-14 3.56-5.5 9.33-15.17 12.82-21.5 3.49-6.33 8.89-16.9 12.01-23.5 3.11-6.6 8.04-17.85 10.94-25 2.9-7.15 7.49-19.75 10.18-28 2.7-8.25 6.73-21.3 8.97-29 2.23-7.7 5.57-20.3 7.42-28 1.84-7.7 4.5-19.85 5.89-27 1.4-7.15 3.44-18.62 4.54-25.5 1.1-6.87 2.91-19.47 4.02-28 1.11-8.52 2.9-24.95 3.97-36.5 1.08-11.55 2.53-29.1 3.24-39 0.86-11.95 1.29-40.34 1.29-84.5 0.01-44.45-0.42-72.47-1.28-84.5-0.71-9.9-1.95-25.42-2.76-34.5-0.81-9.08-2.6-25.5-3.98-36.5-1.38-11-3.12-23.6-3.87-28-0.75-4.4-1.42-6.87-1.49-5.5-0.07 1.38-6.68 47.05-14.69 101.5z"/>
		<path id="Path 2" fill-rule="evenodd" class="s0" d="m718 172.12c9.08-0.07 21.45 0.34 27.5 0.9 6.05 0.56 16.17 1.93 22.5 3.05 6.33 1.11 15.1 2.93 19.5 4.03 4.4 1.1 13.85 3.86 21 6.15 7.27 2.31 19.39 7.32 27.5 11.34 7.98 3.96 20.35 11.11 27.5 15.89 7.15 4.77 17.05 11.97 22 16 4.95 4.02 15.54 14 23.53 22.17 8 8.17 18.85 20.47 24.13 27.35 5.27 6.87 13.4 18.35 18.05 25.5 4.66 7.15 11.64 18.85 15.52 26 3.87 7.15 8.72 16.6 10.77 21 2.05 4.4 5.96 13.18 8.68 19.5 2.72 6.32 7.64 19.37 10.93 29 3.29 9.62 8.42 26.05 11.4 36.5 2.99 10.45 6.98 25.52 8.89 33.5 1.9 7.98 4.8 21.25 6.45 29.5 1.66 8.25 4.16 22.65 5.56 32 1.41 9.35 3.24 22.4 4.06 29 0.83 6.6 2.17 18.52 2.98 26.5 0.82 7.98 2.2 24.62 3.07 37 0.87 12.37 1.93 38.92 2.36 59 0.42 20.08 0.42 53.15 0 73.5-0.43 20.35-1.49 47.12-2.36 59.5-0.87 12.37-2.25 29.02-3.07 37-0.81 7.98-2.15 19.9-2.98 26.5-0.82 6.6-2.65 19.65-4.06 29-1.4 9.35-3.9 23.75-5.56 32-1.65 8.25-4.55 21.52-6.45 29.5-1.91 7.98-5.9 23.05-8.89 33.5-2.98 10.45-8.11 26.87-11.4 36.5-3.29 9.62-8.21 22.67-10.93 29-2.72 6.33-6.63 15.1-8.68 19.5-2.05 4.4-6.65 13.4-10.23 20-3.58 6.6-9.02 16.05-12.09 21-3.08 4.95-8.48 13.05-12.02 18-3.53 4.95-9.39 12.83-13.02 17.5-3.63 4.67-12.68 14.74-20.12 22.37-7.43 7.63-17.79 17.46-23.02 21.84-5.23 4.37-15.58 12.01-23 16.98-7.42 4.96-20.02 12.26-28 16.22-8.01 3.98-20.32 9.06-27.5 11.36-7.15 2.29-16.6 5.05-21 6.13-4.4 1.09-11.83 2.69-16.5 3.57-4.67 0.88-14.35 2.25-21.5 3.05-7.15 0.8-20.2 1.46-29 1.46-8.8 0-21.85-0.66-29-1.46-7.15-0.81-15.7-1.96-19-2.56-3.3-0.6-10.05-2-15-3.11-4.95-1.11-14.4-3.62-21-5.56-6.6-1.94-16.5-5.47-22-7.83-5.5-2.37-14.27-6.63-19.5-9.48-5.23-2.86-13.33-7.67-18-10.71-4.67-3.04-12.77-8.72-18-12.62-5.23-3.89-16.95-14.52-26.05-23.62-9.91-9.9-20.16-21.34-25.58-28.53-4.97-6.6-11.74-16.05-15.04-21-3.31-4.95-9.4-15.08-13.54-22.5-4.14-7.42-9.84-18.11-12.66-23.75-2.82-5.64-7.88-16.66-11.24-24.5-3.36-7.84-9.49-24.38-13.61-36.75-4.13-12.38-7.73-24.75-8-27.5-0.28-2.75-0.03-6.8 0.55-9 0.62-2.38 2.59-5.5 4.86-7.71 2.09-2.03 103.48-77.87 225.31-168.52 198.49-147.7 222.02-164.93 226.5-165.84 3.17-0.65 6.64-0.68 9.5-0.1 2.48 0.5 5.85 1.95 7.5 3.22 1.65 1.27 6.37 6.87 18 22.57l0.66-3.31c0.36-1.82 4.86-31.75 10-66.5 5.14-34.76 9.11-63.46 8.84-63.79-0.27-0.32-29.3-4.83-64.5-10.02-35.2-5.19-65.01-9.56-66.24-9.72-1.46-0.18-2.07 0.15-1.75 0.97 0.27 0.69 3.6 5.41 7.4 10.5 4.27 5.71 7.36 10.97 8.08 13.75 0.65 2.54 0.86 6.24 0.47 8.5-0.38 2.2-1.28 5.13-1.99 6.5-0.71 1.38-2.57 3.69-4.13 5.14-1.56 1.45-89.24 66.87-194.84 145.39-105.6 78.51-192.45 143.13-193 143.6-0.55 0.47-3.25 1.46-6 2.19-3.9 1.05-5.99 1.09-9.5 0.2-2.48-0.62-5.85-2.05-7.5-3.17-1.65-1.12-3.99-4.02-5.2-6.44-1.21-2.43-2.7-7.33-3.31-10.91-0.61-3.58-1.81-13.47-2.66-22-1.2-12.11-1.6-32.1-1.84-91.5-0.16-41.8 0.11-83.65 0.6-93 0.49-9.35 1.31-20.83 1.83-25.5 0.52-4.67 1.66-15.02 2.53-23 0.87-7.97 2.51-21.92 3.65-31 1.13-9.08 3.56-25.5 5.39-36.5 1.83-11 5.44-29.45 8.03-41 2.58-11.55 7.54-30.9 11.01-43 3.48-12.1 8.88-29.42 12.01-38.5 3.13-9.07 8.37-22.8 11.65-30.5 3.28-7.7 9.91-21.65 14.74-31 4.83-9.35 11.37-21.27 14.54-26.5 3.17-5.22 8.71-13.77 12.31-19 3.6-5.22 9.94-13.77 14.08-19 4.14-5.22 12.73-14.84 19.08-21.37 6.36-6.52 15.83-15.44 21.06-19.82 5.23-4.38 15.12-11.72 22-16.32 6.87-4.6 17.23-10.88 23-13.95 5.77-3.08 14.1-7.14 18.5-9.03 4.4-1.88 10.92-4.37 14.5-5.52 3.58-1.15 12.35-3.63 19.5-5.5 7.15-1.87 17.05-4.14 22-5.06 4.95-0.91 13.95-2.23 20-2.93 6.05-0.69 18.42-1.32 27.5-1.38zm-38 43.46c-5.23 0.88-14.45 2.85-20.5 4.38-6.05 1.53-15.73 4.62-21.5 6.88-5.77 2.25-15 6.39-20.5 9.2-5.5 2.81-15.63 8.84-22.5 13.41-6.88 4.57-16.33 11.67-21 15.77-4.67 4.1-12.55 11.71-17.5 16.9-4.95 5.2-13.08 14.83-18.08 21.41-4.99 6.59-12.31 17.15-16.26 23.47-3.95 6.33-11.62 20.28-17.05 31-5.43 10.73-12.58 26.25-15.9 34.5-3.32 8.25-8.76 23.33-12.09 33.5-3.33 10.18-7.84 25.03-10.03 33-2.18 7.98-5.14 19.45-6.57 25.5-1.43 6.05-4.12 19.1-5.98 29-1.86 9.9-4.11 23.4-5 30-0.89 6.6-2.04 14.92-2.55 18.5-0.51 3.58-1.64 13.48-2.51 22-0.86 8.53-1.99 18.42-2.49 22-0.51 3.58-1.49 13.25-2.18 21.5-0.87 10.39-1.26 39.91-1.28 96-0.02 52.31 0.32 81.57 0.97 82.6 0.84 1.35 23.67-15.26 142-103.33 77.55-57.72 154.19-114.69 170.3-126.61l29.31-21.66c-29.14-39.07-32.33-44-33.5-48.5-1.17-4.51-1.21-6.31-0.19-10 0.68-2.47 1.95-5.62 2.81-7 0.87-1.37 2.86-3.36 4.42-4.42 1.57-1.06 4.87-2.46 7.35-3.12 4.1-1.1 13.2 0.06 102.5 13.12 53.9 7.88 100.7 14.83 104 15.45 3.3 0.62 7.8 2.17 10 3.44 2.2 1.27 5 4.05 6.22 6.17 1.22 2.12 2.22 4.76 2.22 5.86 0 1.1 0.27 1.78 0.58 1.5 0.32-0.27-0.35-5.67-1.49-12-1.14-6.32-3.69-18.7-5.66-27.5-1.98-8.8-5.77-23.65-8.44-33-2.67-9.35-7.06-23.75-9.76-32-2.71-8.25-7.3-20.85-10.2-28-2.9-7.15-7.83-18.4-10.94-25-3.12-6.6-8.52-17.17-12.01-23.5-3.49-6.32-9.11-15.77-12.49-21-3.37-5.22-10.14-14.67-15.04-21-4.89-6.32-14.32-17.06-20.94-23.85-6.63-6.8-15.43-15.17-19.55-18.59-4.13-3.43-11.55-8.93-16.5-12.23-4.95-3.29-12.83-8.12-17.5-10.73-4.67-2.6-11.88-6.25-16-8.1-4.13-1.84-10.42-4.45-14-5.79-3.58-1.33-12.13-3.81-19-5.5-6.88-1.69-15.88-3.58-20-4.19-4.13-0.62-11.33-1.49-16-1.95-4.67-0.46-14.58-0.81-22-0.79-7.42 0.02-17.33 0.42-22 0.88-4.67 0.46-12.77 1.55-18 2.42zm293.42 416.92c-8.01 54.45-15.09 101.22-15.74 103.94-0.84 3.5-2.36 6.11-5.23 9-2.98 2.99-5.35 4.34-9 5.13-3.54 0.76-6.37 0.75-9.95-0.04-2.75-0.61-6.18-1.99-7.62-3.07-1.44-1.08-9.77-11.55-18.5-23.28-9.92-13.31-16.35-21.1-17.13-20.75-0.69 0.32-93.61 69.25-206.5 153.2-112.89 83.95-205.77 153.13-206.41 153.75-0.87 0.84-0.11 4.2 3.09 13.62 2.34 6.88 6.63 18.35 9.55 25.5 2.92 7.15 8.89 20.2 13.27 29 4.38 8.8 11.4 21.85 15.59 29 4.19 7.15 12.33 19.3 18.1 27 5.76 7.7 15.22 18.88 21.02 24.85 5.8 5.97 14.14 13.9 18.54 17.63 4.4 3.73 13.4 10.3 20 14.59 6.6 4.3 16.95 10.34 23 13.43 6.05 3.1 15.05 7.11 20 8.92 4.95 1.81 13.95 4.55 20 6.09 6.05 1.54 15.16 3.52 20.25 4.4 5.09 0.87 16.11 2.12 24.5 2.76 11.68 0.9 19.11 0.89 31.75-0.01 9.08-0.65 20.33-1.86 25-2.69 4.67-0.83 12.33-2.42 17-3.52 4.67-1.11 11.87-3.19 16-4.62 4.12-1.43 11.55-4.44 16.5-6.7 4.95-2.25 12.6-6.09 17-8.54 4.4-2.44 12.05-7.12 17-10.41 4.95-3.29 11.47-8.02 14.5-10.53 3.02-2.5 10.83-9.74 17.35-16.1 6.52-6.35 15.27-15.83 19.44-21.05 4.17-5.22 9.01-11.3 10.76-13.5 1.75-2.2 6.09-8.5 9.65-14 3.56-5.5 9.33-15.17 12.82-21.5 3.49-6.33 8.89-16.9 12.01-23.5 3.11-6.6 8.04-17.85 10.94-25 2.9-7.15 7.49-19.75 10.18-28 2.7-8.25 6.73-21.3 8.97-29 2.23-7.7 5.57-20.3 7.42-28 1.84-7.7 4.5-19.85 5.89-27 1.4-7.15 3.44-18.62 4.54-25.5 1.1-6.87 2.91-19.47 4.02-28 1.11-8.52 2.9-24.95 3.97-36.5 1.08-11.55 2.53-29.1 3.24-39 0.86-11.95 1.29-40.34 1.29-84.5 0.01-44.45-0.42-72.47-1.28-84.5-0.71-9.9-1.95-25.42-2.76-34.5-0.81-9.08-2.6-25.5-3.98-36.5-1.38-11-3.12-23.6-3.87-28-0.75-4.4-1.42-6.87-1.49-5.5-0.07 1.38-6.68 47.05-14.69 101.5z"/>
	</g>
</svg>